<svg xmlns="http://www.w3.org/2000/svg" width="511.958" height="127.245" viewBox="0 0 4305.786 1070.188">
  <defs>
    <style>
      .cls-1 {
        fill: #fff;
        fill-rule: evenodd;
      }
    </style>
  </defs>
  <path id="cromato-full" class="cls-1" d="M4715.99,1369.91q-26.88,40.155-72.05,60.94t-101.08,20.79q-55.92,0-100.01-20.08-44.085-20.055-69.18-60.93t-25.09-102.52q0-58.77,26.53-99.65,26.505-40.86,71.33-62.73,44.79-21.855,99.29-21.86,57.345,0,101.8,21.15a161.664,161.664,0,0,1,69.89,62.73q25.44,41.58,25.45,103.95Q4742.87,1329.765,4715.99,1369.91Zm-115.06-140.15q-7.17-18.285-20.43-29.04-13.275-10.755-33.34-10.75t-34.41,9.32q-14.355,9.33-21.87,26.88-7.515,17.58-7.52,41.94,0,22.95,7.17,40.51t20.79,27.24q13.605,9.675,32.97,9.68,20.79,0,34.77-8.25t21.51-24.73q7.53-16.485,7.53-40.86Q4608.1,1248.03,4600.93,1229.76Zm-391.06,103.23q11.1,12.555,29.75,12.55a107.011,107.011,0,0,0,24.37-3.23,92.86,92.86,0,0,0,25.81-10.39l37.28,88.89q-8.61,7.17-24.73,14.34a210.414,210.414,0,0,1-35.13,11.83,152.4,152.4,0,0,1-36.21,4.66,204.364,204.364,0,0,1-78.85-15.42q-37.29-15.4-60.58-46.24-23.31-30.81-23.3-76.7V1212.91h-53.77V1110.39h53.77v-93.91l130.47-17.921V1110.39h91.05l12.19,102.52H4198.75v86.03Q4198.75,1320.45,4209.87,1332.99Zm-335.86,74.92q-16.5,20.79-36.2,32.26a82.176,82.176,0,0,1-41.94,11.47q-65.97,0-98.22-32.98t-32.26-86.74q0-56.625,38-79.22t98.21-22.58h41.58l-0.71-3.59q-3.6-19.35-15.77-27.96-12.21-8.6-28.68-8.6-17.925,0-42.3,6.09a293.411,293.411,0,0,0-44.44,14.7l-34.42-93.91a339.4,339.4,0,0,1,43.38-16.13,411.857,411.857,0,0,1,53.05-12.19,351.013,351.013,0,0,1,56.99-4.66q47.31,0,79.58,17.92,32.25,17.925,48.39,50.18t16.13,76.71v215.07h-63.09Zm-30.11-106.1h-40.15q-12.9,0-21.14,7.88-8.25,7.9-8.25,20.07a23.9,23.9,0,0,0,3.23,12.55,24.76,24.76,0,0,0,8.6,8.6,22.592,22.592,0,0,0,11.83,3.23,56.789,56.789,0,0,0,22.94-5.02,100.391,100.391,0,0,0,22.94-14.34v-32.97Zm-364.89-70.26a113.388,113.388,0,0,0-1.79-20.43,24.871,24.871,0,0,0-8.96-15.41q-7.185-5.73-22.95-5.74-6.45,0-18.28,3.23t-24.73,7.52a226.741,226.741,0,0,0-23.12,9.08c0.12,3.15.18,6.33,0.18,9.56v224.39H3248.89v-212.2a112.47,112.47,0,0,0-1.8-20.43,24.871,24.871,0,0,0-8.96-15.41q-7.17-5.73-22.94-5.74-6.45,0-18.28,3.23t-24.73,7.52a223.273,223.273,0,0,0-23.66,9.32v233.71H3018.05V1096.06h77.42l22.94,35.84q17.205-10.755,39.43-21.86a269.618,269.618,0,0,1,47.67-18.28,188.21,188.21,0,0,1,51.26-7.17q45.87,0,72.77,17.56a96.521,96.521,0,0,1,26.37,25.28c9.65-5.72,20.3-11.51,32.05-17.39a269.722,269.722,0,0,1,47.68-18.28,188.139,188.139,0,0,1,51.25-7.17q45.87,0,72.77,17.56a96.581,96.581,0,0,1,38.35,48.03q11.46,30.48,11.47,69.18v224.39H3479.01v-212.2Zm-610.08,199.3q-45.165,20.775-101.08,20.79-55.92,0-100.01-20.08-44.085-20.055-69.18-60.93t-25.09-102.52q0-58.77,26.53-99.65,26.505-40.86,71.33-62.73,44.79-21.855,99.29-21.86,57.345,0,101.8,21.15a161.634,161.634,0,0,1,69.9,62.73q25.425,41.58,25.45,103.95,0,58.065-26.89,98.21T2868.93,1430.85Zm-43.01-201.09q-7.17-18.285-20.43-29.04t-33.34-10.75q-20.07,0-34.41,9.32t-21.86,26.88q-7.53,17.58-7.53,41.94,0,22.95,7.17,40.51t20.79,27.24q13.605,9.675,32.98,9.68,20.775,0,34.76-8.25t21.51-24.73q7.53-16.485,7.53-40.86Q2833.09,1248.03,2825.92,1229.76Zm-349.48-10.4a175.677,175.677,0,0,0-34.05,20.08v204.31H2311.91V1096.77h65.24l31.55,42.3a256.084,256.084,0,0,1,34.05-19.71,287.96,287.96,0,0,1,41.58-16.49q21.855-6.81,41.22-6.81l26.52,104.66a150.337,150.337,0,0,0-36.92,5.02A233.578,233.578,0,0,0,2476.44,1219.36Zm-433.36,88.9a117.61,117.61,0,0,0,39.07,28.31,109.537,109.537,0,0,0,44.81,9.68,164.784,164.784,0,0,0,50.18-7.52,190.551,190.551,0,0,0,42.3-19l49.47,97.5a196.131,196.131,0,0,1-43.38,19.35,357.5,357.5,0,0,1-50.9,12.19,315.471,315.471,0,0,1-51.25,4.3q-59.52,0-106.46-18.28-46.965-18.285-79.58-51.98-32.625-33.675-49.82-79.57-17.2-45.87-17.21-101.08,0-55.92,18.64-102.88,18.63-46.935,52.34-81.01a235.111,235.111,0,0,1,79.57-52.688q45.87-18.635,99.65-18.639a282.663,282.663,0,0,1,50.18,4.659,300.184,300.184,0,0,1,50.18,13.621,191.607,191.607,0,0,1,43.02,21.866l-38.71,88.181q-25.815-9.315-42.66-13.62a264.553,264.553,0,0,0-30.47-6.1,232.821,232.821,0,0,0-30.11-1.79q-28.68,0-55.56,18.28t-44.09,51.62q-17.2,33.33-17.2,77.78,0,34.41,10.39,61.29Q2025.875,1289.625,2043.08,1308.26Zm-368.99-122.47h0c-0.42.93-.86,1.85-1.3,2.75-0.08.15-.15,0.3-0.22,0.44-0.4.8-.8,1.57-1.21,2.34-0.06.11-.12,0.23-0.18,0.34a63.31,63.31,0,0,0-4.57,36.7c0.02,0.06.05,0.12,0.07,0.18,0.28,0.58.55,1.19,0.79,1.82,0.08,0.21.16,0.41,0.23,0.62q0.33,0.885.6,1.83c0.05,0.16.1,0.3,0.14,0.46,0.21,0.79.4,1.6,0.56,2.45,0.04,0.19.06,0.39,0.1,0.59,0.12,0.69.21,1.41,0.29,2.15,0.02,0.15.05,0.28,0.06,0.43,0.03,0.07.05,0.11,0.05,0.11l-0.04-.02c0.01,0.09.01,0.19,0.02,0.29,0.08,0.91.14,1.85,0.15,2.84q-0.69,6.72-1.5,13.31c-0.05.19-.08,0.38-0.13,0.58a35.415,35.415,0,0,0-1.2,9.6c-55.57,401.68-431.65,431.81-558.85,430.35L1108,1696h-74l0.18-.24c-115.916,3.06-511.848-17.18-568.976-430.16a35.741,35.741,0,0,0-1.2-9.6c-0.045-.2-0.083-0.39-0.127-0.58q-0.81-6.585-1.5-13.31c0-.28.026-0.54,0.036-0.82,0,0,0,0-.006.01,0-.08.012-0.14,0.015-0.21,0.035-.87.1-1.71,0.182-2.53,0.017-.16.032-0.33,0.051-0.49,0.107-.9.233-1.78,0.4-2.61v-0.01L462,1236s9.473-17.49.861-40.59c-0.6-1.1-1.218-2.24-1.861-3.41-0.51-.93-1-1.89-1.49-2.86-0.076-.15-0.152-0.3-0.227-0.46-0.469-.94-0.927-1.91-1.374-2.89h0c-10.6-23.3-15.151-55.59-16.473-66.78-9.292-44.85-6.048-103.8,33.565-173.01,80.145-140.033,190.538-153.053,238.369-154H625c-21.331,0-14-15-14-15s66.831-43.583,117-75,81-22,81-22l172.033,30.792C984.93,685.179,988,661.628,988,651c0-29.092,18-25,18-25h120s18-4.092,18,25c0,10.628,3.07,34.18,6.97,59.792L1323,680s30.83-9.417,81,22,117,75,117,75,7.33,15-14,15h-88.37c47.83,0.947,158.22,13.967,238.37,154,39.61,69.21,42.86,128.16,33.56,173.01C1689.24,1130.2,1684.69,1162.49,1674.09,1185.79ZM1412.26,954.019a36.969,36.969,0,0,0-52.5,0L977.536,1338.2,818.121,1177.97a36.969,36.969,0,0,0-52.51,0,37.434,37.434,0,0,0,0,52.77l185.67,186.63a37,37,0,0,0,52.509,0l408.47-410.57A37.44,37.44,0,0,0,1412.26,954.019Z" transform="translate(-437.094 -625.812)"/>
</svg>
